<svg xmlns="http://www.w3.org/2000/svg" viewBox="0 0 128 128"><defs><style>.cls-1{isolation:isolate;}.cls-2{mix-blend-mode:multiply;}.cls-3{fill:#e05951;}.cls-4{fill:#093357;}.cls-5{fill:#e2bc00;}.cls-6{fill:#489de3;}.cls-7{fill:#d4dfea;}</style></defs><title>record-player</title><g class="cls-1"><g id="icons" class="cls-2"><rect class="cls-3" x="12" y="25" width="104" height="78" rx="8" ry="8"/><circle class="cls-4" cx="51" cy="64" r="31"/><circle class="cls-5" cx="95" cy="42" r="9"/><circle class="cls-6" cx="51" cy="64" r="8"/><circle class="cls-4" cx="51" cy="64" r="2"/><path class="cls-7" d="M65,85a2,2,0,0,1-.84-3.82l9-4.16A10,10,0,0,0,78,72.18L97.2,33.12a2,2,0,1,1,3.59,1.76l-19.14,39a14,14,0,0,1-6.8,6.74l-9,4.16A2,2,0,0,1,65,85Z"/><circle class="cls-4" cx="95" cy="42" r="4"/><rect class="cls-7" x="60" y="79" width="10" height="8" rx="2" ry="2" transform="translate(-28.14 33.61) rotate(-24)"/><rect class="cls-5" x="96" y="83" width="8" height="8" rx="2" ry="2"/><rect class="cls-5" x="96" y="71" width="8" height="8" rx="2" ry="2"/></g></g></svg>